<?xml version="1.0" encoding="UTF-8"?>
<svg version="1.1" xmlns="http://www.w3.org/2000/svg" width="2520" height="588">
<path d="M0 0 C3.64986534 0.00882863 7.29972609 0.00570099 10.94959915 0.00419545 C17.23847264 0.00315856 23.52730389 0.00930786 29.81616676 0.02067113 C38.90823494 0.03708857 48.00028319 0.04215051 57.09236459 0.04464711 C71.85202842 0.0489991 86.61166985 0.06223953 101.37132156 0.08125234 C115.68902877 0.09967639 130.00672985 0.11380074 144.32444656 0.12226796 C145.2104647 0.12279341 146.09648285 0.12331886 147.00935002 0.12386023 C151.45528016 0.12647074 155.90121034 0.12899805 160.34714055 0.13148403 C197.09406759 0.15213858 233.84096918 0.18729499 270.58787429 0.23213124 C269.85731148 3.47498031 268.93680214 5.38799551 266.84959304 7.99775624 C265.99977859 9.07283437 265.99977859 9.07283437 265.13279617 10.16963124 C264.51984695 10.93275624 263.90689773 11.69588124 263.27537429 12.48213124 C261.98641743 14.11139374 260.6986777 15.74161982 259.41209304 17.37275624 C258.76546707 18.1906664 258.11884109 19.00857656 257.45262039 19.85127187 C254.77480479 23.27023726 252.17706526 26.74585271 249.58787429 30.23213124 C244.74671359 36.73240059 239.78972379 43.13544171 234.79881179 49.52119374 C230.51124714 55.01758719 226.31219957 60.57365914 222.14890945 66.16450429 C217.56319528 72.30512689 212.85787847 78.35026025 208.13084304 84.38252187 C207.56752273 85.10246327 207.00420242 85.82240468 206.42381179 86.56416249 C205.92413894 87.20071767 205.42446609 87.83727284 204.90965164 88.49311757 C203.74232116 90.0289312 202.65794028 91.62703227 201.58787429 93.23213124 C198.53489947 93.53414157 195.68343902 93.63877933 192.62722671 93.61740041 C191.68730607 93.6226361 190.74738543 93.6278718 189.77898234 93.63326615 C186.60927581 93.64730571 183.43997184 93.63990618 180.27024734 93.63276601 C178.00535615 93.63850463 175.74046801 93.64558578 173.47558486 93.65391469 C168.58646392 93.66906766 163.69745246 93.67479858 158.80830848 93.67338681 C151.07117895 93.67135763 143.3341969 93.6908928 135.59710586 93.7135613 C124.74140929 93.74318832 113.88574221 93.76376404 103.03001297 93.77583241 C102.34073138 93.7766019 101.65144979 93.77737139 100.94128088 93.7781642 C98.14934893 93.78126571 95.35741695 93.78434854 92.56548495 93.78740424 C84.9035929 93.79591341 77.24170501 93.80681954 69.57981765 93.81880116 C68.89471037 93.81986918 68.20960308 93.8209372 67.50373497 93.82203759 C56.05091392 93.84017606 44.59812436 93.86624644 33.14532965 93.8969323 C25.4617584 93.91680937 17.77826364 93.92643113 10.09466767 93.92788446 C5.29869943 93.93064595 0.50277294 93.94150148 -4.29317772 93.95439458 C-6.50820634 93.95865445 -8.72324455 93.95954773 -10.93827546 93.95671964 C-32.17359051 92.97550823 -32.17359051 92.97550823 -51.41212571 100.23213124 C-55.34086078 105.26582305 -55.04052844 111.1211423 -54.41212571 117.23213124 C-53.4218174 120.86326171 -52.63004327 122.50466603 -49.38478196 124.44306874 C-42.75149923 127.5555242 -36.75736925 128.38070421 -29.46223557 128.37689137 C-28.66705922 128.38041822 -27.87188288 128.38394507 -27.05261028 128.38757879 C-24.39021626 128.39824535 -21.72785806 128.40194348 -19.06544602 128.40571523 C-17.15455582 128.41202295 -15.24366709 128.418789 -13.33278 128.4259789 C-9.21479453 128.44064637 -5.09681471 128.45237307 -0.97881424 128.4619267 C5.55623897 128.4774225 12.09124435 128.50137883 18.62626541 128.52682424 C37.21141921 128.59788839 55.79660162 128.65747024 74.38181961 128.70893788 C84.64474102 128.73743403 94.907616 128.77292744 105.17048848 128.81559163 C110.58987925 128.83777573 116.00922774 128.85637486 121.42865646 128.86604047 C222.076759 129.05276203 222.076759 129.05276203 254.58787429 161.23213124 C273.88702545 182.98148811 276.71661892 208.30075893 275.58787429 236.23213124 C273.76273403 260.24068766 264.61841966 283.47121769 246.90818679 300.24384999 C218.75183367 324.37109534 180.97437288 332.43537493 144.66743362 332.35238576 C143.27699474 332.35282255 141.88655595 332.35369944 140.49611759 332.35497493 C136.69917319 332.35719872 132.90225729 332.35322773 129.10531652 332.34819686 C125.00184116 332.34386202 120.89836729 332.34534094 116.79489028 332.34609914 C109.6932362 332.34662245 102.59159134 332.34349576 95.48993957 332.3378613 C85.22225392 332.32972022 74.95457271 332.32712841 64.68688418 332.32587331 C48.02659971 332.32368689 31.36632016 332.31703791 14.70603836 332.3075707 C-1.47397442 332.29838598 -17.65398585 332.29131033 -33.83400071 332.28706288 C-34.83201699 332.28680016 -35.83003327 332.28653744 -36.85829248 332.28626675 C-41.86524999 332.28496168 -46.87220752 332.28369798 -51.87916505 332.28245485 C-93.39015535 332.27209499 -134.90114025 332.25448782 -176.41212571 332.23213124 C-175.11515691 329.58656972 -173.78393292 327.22654709 -172.01368821 324.86884999 C-171.3040593 323.92138906 -171.3040593 323.92138906 -170.58009446 322.95478749 C-170.07091477 322.28318593 -169.56173508 321.61158437 -169.03712571 320.91963124 C-168.23855149 319.86002187 -168.23855149 319.86002187 -167.42384446 318.77900624 C-163.34996563 313.40148619 -159.1565929 308.12854942 -154.91676438 302.88154531 C-151.29496164 298.38242611 -147.79800417 293.80272869 -144.34962571 289.16963124 C-139.77210676 283.01946775 -135.09590699 276.96128228 -130.34181321 270.94697499 C-126.92476915 266.62305453 -123.54349528 262.27147095 -120.16212571 257.91963124 C-119.59574387 257.19082753 -119.02936203 256.46202382 -118.44581711 255.71113515 C-117.8932927 255.00005605 -117.34076828 254.28897695 -116.77150071 253.55634999 C-116.24551574 252.89538009 -115.71953078 252.23441018 -115.17760688 251.55341089 C-113.39101578 249.27389976 -113.39101578 249.27389976 -111.92571872 246.87976849 C-107.84838427 240.74225311 -107.84838427 240.74225311 -104.08396578 239.40522909 C-101.2885689 239.08978789 -98.61746501 239.06216142 -95.80499375 239.1320641 C-94.74842837 239.12240743 -93.69186299 239.11275075 -92.60328048 239.10280144 C-89.06779025 239.08131415 -85.53600789 239.1239091 -82.00074875 239.16621327 C-79.46424302 239.16380034 -76.92773841 239.15738843 -74.39125168 239.14727712 C-68.93104455 239.13418599 -63.47198986 239.14837307 -58.01192391 239.18706059 C-50.10702147 239.24275561 -42.20277098 239.24573485 -34.29771075 239.23548137 C-21.45719656 239.21997201 -8.61705013 239.24234946 4.22337234 239.29072499 C16.66933479 239.33749259 29.11522161 239.37400371 41.56126297 239.39131093 C42.32740172 239.39238466 43.09354048 239.39345838 43.88289557 239.39456464 C52.25445204 239.40588854 60.62600416 239.41300016 68.99756801 239.41512799 C69.73427038 239.41532334 70.47097274 239.41551868 71.22999942 239.41571995 C74.17590004 239.41644435 77.12180052 239.41712312 80.06770124 239.41726492 C88.67721326 239.41778415 97.28646803 239.43129775 105.89590325 239.46860377 C111.93956321 239.49443994 117.98316231 239.50624331 124.02687728 239.5132153 C126.50120125 239.51878483 128.97551993 239.52956655 131.4497956 239.54599881 C134.83325798 239.56789572 138.21626937 239.57124259 141.59979141 239.57029653 C142.57364376 239.58128318 143.54749612 239.59226983 144.55085915 239.60358942 C152.28274009 239.57068149 159.84026782 238.21748663 166.58787429 234.23213124 C169.48398541 227.83233326 170.25651433 221.13529422 168.43162429 214.35713124 C166.8240324 210.3083813 164.70613546 208.20482641 160.7520026 206.38910794 C152.11148777 203.41246865 143.26785519 203.79849765 134.25266922 203.81562734 C132.40351203 203.8082377 130.55435973 203.79952974 128.70521438 203.7896111 C123.70246432 203.76636455 118.69983854 203.76114217 113.69704115 203.7589519 C108.43643358 203.75326344 103.17590517 203.7299647 97.91534317 203.70835805 C87.93923538 203.66986957 77.9631504 203.64563743 67.98698729 203.62723339 C50.17204889 203.59388063 32.35718135 203.53560048 14.54232377 203.47324169 C8.30609861 203.45196224 2.06989609 203.43657123 -4.1663568 203.42640209 C-8.07662106 203.41929215 -11.98686938 203.40840008 -15.8971225 203.39676023 C-17.6863081 203.39227234 -19.47549864 203.38937118 -21.26468956 203.38833737 C-30.68615074 203.3821803 -40.08578869 203.22703366 -49.49859726 202.80430532 C-50.33707697 202.76829351 -51.17555668 202.7322817 -52.03944486 202.69517863 C-84.97808284 201.06633285 -117.30347625 191.22723996 -140.59962571 167.04463124 C-151.47210429 154.63619933 -157.6989305 139.44820493 -160.41212571 123.23213124 C-160.52298508 122.59017812 -160.63384446 121.94822499 -160.74806321 121.28681874 C-164.47883154 94.76811413 -158.8464744 67.36044616 -143.53712571 45.35713124 C-122.22913579 17.71880646 -88.84702877 6.75014681 -55.41212571 2.23213124 C-36.97702046 0.21539245 -18.52462395 -0.05651632 0 0 Z " fill="#FDFDFD" transform="translate(2244.4121257066727,4.767868757247925)"/>
<path d="M0 0 C2.11336277 -0.00045373 4.22672844 -0.00528765 6.34007263 -0.01416016 C12.075575 -0.02556854 17.80904136 0.02502272 23.54415607 0.08718967 C29.5728 0.14246003 35.60145228 0.14228172 41.63031006 0.14862061 C51.77554224 0.16703355 61.92002105 0.222063 72.06494141 0.30273438 C86.2795606 0.41567901 100.49379472 0.46097368 114.70879221 0.49330378 C124.6333413 0.51840531 134.55783491 0.55965105 144.48231411 0.60406399 C146.86639713 0.614722 149.25048188 0.62500007 151.63456821 0.63488865 C284.29760889 1.19919072 284.29760889 1.19919072 328.43261719 44.16699219 C329.2640625 44.9365625 330.09550781 45.70613281 330.95214844 46.49902344 C347.68892331 62.41309969 358.40882226 84.35761938 359.60961914 107.59179688 C360.15417783 140.89015058 360.15417783 140.89015058 355.43261719 155.16699219 C355.22362793 155.83891602 355.01463867 156.51083984 354.79931641 157.203125 C346.72227742 182.79554066 328.91730533 204.17126642 305.43261719 217.16699219 C299.87167142 219.84802512 294.15371906 222.15141779 288.39282227 224.36425781 C286.3487544 225.2013353 284.39581644 226.15620357 282.43261719 227.16699219 C282.92890625 227.59109375 283.42519531 228.01519531 283.93652344 228.45214844 C287.97458766 231.93852267 291.82637214 235.51840738 295.56005859 239.32714844 C297.34369021 241.07961883 299.18227271 242.70577231 301.08496094 244.32714844 C305.7561267 248.39010628 310.13008893 252.71725004 314.49511719 257.10449219 C315.25888672 257.86439453 316.02265625 258.62429688 316.80957031 259.40722656 C320.99036885 263.59517788 324.98382078 267.87676295 328.84448242 272.3605957 C331.0965545 274.92217623 333.49199354 277.28379497 335.93261719 279.66699219 C339.65381719 283.33265189 343.16946223 287.0986758 346.55761719 291.07324219 C349.3686203 294.21219566 352.38529516 297.14049899 355.38354492 300.09838867 C358.63262326 303.32065667 361.65705582 306.66039864 364.62402344 310.13964844 C366.80220211 312.58127853 369.10509726 314.8674725 371.43261719 317.16699219 C376.49828402 322.17860465 381.47041222 327.22368473 385.43261719 333.16699219 C366.42197599 333.42424828 347.41168918 333.61807174 328.39966679 333.73692608 C319.57143442 333.79358608 310.74428509 333.87079336 301.91674805 333.99682617 C294.22024388 334.10665834 286.52452414 334.17747664 278.82725805 334.20196563 C274.75317994 334.21627647 270.6813453 334.24976335 266.60798836 334.33002281 C262.76836227 334.40505938 258.93188819 334.42765178 255.09159851 334.41117668 C253.68744156 334.41418717 252.28317227 334.43586465 250.87965202 334.47825241 C244.92645355 334.64912805 240.29426711 334.77307048 235.64669609 330.76352882 C233.36372234 327.99309185 231.38253188 325.17751466 229.43261719 322.16699219 C228.41586917 320.92186974 227.38242006 319.68965155 226.31542969 318.48730469 C225.85950439 317.95790283 225.4035791 317.42850098 224.93383789 316.88305664 C224.47968506 316.35800537 224.02553223 315.8329541 223.55761719 315.29199219 C222.53256795 314.10085235 221.50783577 312.90943959 220.48339844 311.71777344 C219.97631348 311.12818848 219.46922852 310.53860352 218.94677734 309.93115234 C213.22070799 303.25966296 207.54082445 296.55190904 201.99511719 289.72949219 C198.5758618 285.53008584 195.0875577 281.39815765 191.55761719 277.29199219 C191.05286865 276.70474365 190.54812012 276.11749512 190.02807617 275.51245117 C189.00543014 274.32302866 187.98272498 273.13365698 186.95996094 271.94433594 C184.48614984 269.06560435 182.01815343 266.18207823 179.55761719 263.29199219 C178.27682401 261.79185828 176.99590414 260.29174353 175.69991493 258.80471802 C174.43261719 257.16699219 174.43261719 257.16699219 173.37068748 255.14620972 C171.94450627 252.65012045 170.66477782 250.99645624 168.43261719 249.16699219 C163.71120216 247.9627596 159.00569222 248.09550793 154.16552734 248.16699219 C152.70651094 248.1593808 151.24750927 248.14825747 149.7885437 248.13389587 C145.83805937 248.10492369 141.88917537 248.12496516 137.93874788 248.15391159 C133.80667805 248.17582016 129.6748672 248.15251262 125.54281616 248.1340332 C117.72295995 248.105915 109.90371747 248.1183699 102.08387887 248.14545727 C91.51370305 248.17972173 80.94370787 248.15120016 70.37353706 248.12622261 C53.72624544 248.08853765 37.08026111 248.13464311 20.43261719 248.16699219 C20.43261719 276.21699219 20.43261719 304.26699219 20.43261719 333.16699219 C-15.53738281 333.16699219 -51.50738281 333.16699219 -88.56738281 333.16699219 C-88.56738281 275.74699219 -88.56738281 218.32699219 -88.56738281 159.16699219 C-56.57800781 159.12832031 -56.57800781 159.12832031 -23.94238281 159.08886719 C-10.43456174 159.06370188 3.0732468 159.03755847 16.58105469 159.00683594 C23.67838476 158.99074508 30.77571533 158.97490178 37.87304688 158.95947266 C38.76250952 158.95752872 39.65197217 158.95558478 40.56838822 158.95358193 C54.90431645 158.92261098 69.24022868 158.90560061 83.57618403 158.89379796 C98.30262832 158.88136117 113.02898909 158.85380289 127.75538063 158.81237912 C136.83308662 158.78731592 145.91065401 158.77386965 154.98839509 158.77556261 C161.22405951 158.77559251 167.45958336 158.76085654 173.69519293 158.73482791 C177.28603555 158.72026516 180.87658996 158.71190659 184.46745682 158.7211895 C214.44643872 158.95076267 214.44643872 158.95076267 240.49902344 145.33496094 C245.90341578 139.35757278 247.31410697 133.10717655 247.43261719 125.16699219 C246.72131176 117.18456457 243.33808004 111.21418493 237.87011719 105.47949219 C224.38611201 95.19272535 206.03583874 95.02290939 189.91047668 95.0087738 C188.69643007 95.00383583 187.48238345 94.99889785 186.23154753 94.99381024 C182.89292724 94.98118985 179.5543478 94.97284885 176.21571338 94.96638358 C172.60372752 94.95832201 168.99176221 94.9446444 165.37979126 94.93167114 C159.13213056 94.90998941 152.88446769 94.8918149 146.63678932 94.87606621 C137.60384968 94.85329149 128.57093288 94.8251595 119.53801271 94.79574693 C104.88041377 94.74816381 90.22280545 94.70487469 75.56518555 94.66430664 C61.33210522 94.62490435 47.09903319 94.58346689 32.8659668 94.53930664 C31.98769306 94.53658237 31.10941932 94.5338581 30.20453123 94.53105127 C25.79820709 94.51737101 21.39188307 94.50365089 16.98555911 94.48991096 C-19.53207091 94.37609209 -56.04971869 94.2692507 -92.56738281 94.16699219 C-91.61808354 92.72714272 -90.66666327 91.28869149 -89.71435547 89.85083008 C-88.91996567 88.64904869 -88.91996567 88.64904869 -88.10952759 87.42298889 C-86.2193964 84.65792442 -84.13629047 82.13389432 -81.94238281 79.60449219 C-78.00234186 74.98713872 -74.30587405 70.23100255 -70.69238281 65.35449219 C-66.7514453 60.03858851 -62.72921075 54.81187024 -58.56738281 49.66699219 C-54.45450313 44.57979796 -50.46822085 39.41851127 -46.56738281 34.16699219 C-41.28049397 27.05375503 -35.92077275 19.96610498 -30.15494919 13.23057938 C-28.48144344 11.17685932 -28.48144344 11.17685932 -27.24901199 8.6596489 C-20.90707496 -1.96176922 -11.01592348 -0.18802321 0 0 Z " fill="#FDFDFD" transform="translate(1646.5673828125,3.8330078125)"/>
<path d="M0 0 C11.10117251 9.04721108 20.05013656 18.80508045 27.97265625 30.73046875 C29.29272985 32.69156708 30.61304363 34.65250376 31.93359375 36.61328125 C32.57135742 37.56493164 33.20912109 38.51658203 33.86621094 39.49707031 C36.2525652 43.04997118 38.66941647 46.5811131 41.09765625 50.10546875 C41.52280518 50.72365479 41.9479541 51.34184082 42.38598633 51.97875977 C47.14680053 58.89192595 51.94976265 65.77586129 56.74658203 72.6640625 C62.84566896 81.42559914 68.89713658 90.21900451 74.93261719 99.02441406 C80.80909399 107.59520849 86.72142565 116.14016852 92.66015625 124.66796875 C99.45642259 134.42715898 106.20901964 144.21508257 112.93261719 154.02441406 C118.80909399 162.59520849 124.72142565 171.14016852 130.66015625 179.66796875 C137.45642259 189.42715898 144.20901964 199.21508257 150.93261719 209.02441406 C156.80909399 217.59520849 162.72142565 226.14016852 168.66015625 234.66796875 C175.45642259 244.42715898 182.20901964 254.21508257 188.93261719 264.02441406 C195.49100993 273.58977743 202.09847197 283.12003989 208.72802734 292.63623047 C213.27857378 299.17143891 217.80697434 305.72117152 222.29882812 312.296875 C223.96648688 314.73319943 225.63785672 317.13935345 227.453125 319.46875 C228.66015625 321.16796875 228.66015625 321.16796875 228.66015625 323.16796875 C99.30015625 323.16796875 -30.05984375 323.16796875 -163.33984375 323.16796875 C-159.24641543 316.73543853 -155.33074444 310.59578937 -150.71484375 304.60546875 C-146.3694734 298.88653407 -142.09833741 293.12245926 -137.90234375 287.29296875 C-137.36198486 286.54257324 -136.82162598 285.79217773 -136.26489258 285.01904297 C-134.6222775 282.73602026 -132.98103023 280.45201856 -131.33984375 278.16796875 C-129.19582237 275.18749351 -127.04993799 272.20837055 -124.90234375 269.23046875 C-124.37310303 268.49650879 -123.8438623 267.76254883 -123.29858398 267.00634766 C-118.66931694 260.59895617 -113.98308008 254.23420985 -109.27172852 247.88696289 C-108.72959717 247.15469482 -108.18746582 246.42242676 -107.62890625 245.66796875 C-106.85389062 244.64676217 -106.85389062 244.64676217 -106.06321812 243.60492516 C-104.29367915 241.20495632 -104.29367915 241.20495632 -102.93810177 238.5809269 C-100.70601961 234.68405714 -99.00461776 231.72061593 -94.61415291 230.263134 C-91.21117435 229.93520102 -87.9372513 229.93030631 -84.51977539 230.03271484 C-82.6016655 230.03052444 -82.6016655 230.03052444 -80.64480591 230.02828979 C-77.15423912 230.02543106 -73.66713882 230.08402852 -70.17737508 230.15402937 C-66.52471669 230.216731 -62.87197032 230.22243103 -59.21885681 230.23428345 C-52.30867159 230.26531132 -45.40007673 230.34729404 -38.49059051 230.44777834 C-30.62139581 230.55972442 -22.75212335 230.61457693 -14.88233006 230.66473269 C1.29942833 230.76913645 17.47958906 230.9449175 33.66015625 231.16796875 C33.12448532 230.4344519 32.58881439 229.70093506 32.03691101 228.94519043 C31.32694473 227.97134399 30.61697845 226.99749756 29.88549805 225.99414062 C29.18482712 225.03374878 28.48415619 224.07335693 27.76225281 223.0838623 C24.57997175 218.66960607 21.52273553 214.17412222 18.47265625 209.66796875 C17.14860151 207.71863859 15.82438015 205.76942159 14.5 203.8203125 C13.8488623 202.86108887 13.19772461 201.90186523 12.52685547 200.91357422 C10.37296204 197.74555362 8.20836369 194.5850165 6.04125977 191.42602539 C-1.52397646 180.39763029 -9.01869646 169.32163419 -16.51548767 158.24667358 C-16.96412674 157.58390411 -17.41276581 156.92113464 -17.875 156.23828125 C-18.32521011 155.57317535 -18.77542023 154.90806946 -19.23927307 154.22280884 C-22.41421943 149.53314576 -25.59267246 144.84587453 -28.7734375 140.16015625 C-29.20861694 139.51906418 -29.64379639 138.87797211 -30.09216309 138.217453 C-32.16084068 135.17018687 -34.22991297 132.12318927 -36.29931641 129.07641602 C-37.03585449 127.99158936 -37.77239258 126.9067627 -38.53125 125.7890625 C-39.17263916 124.84474365 -39.81402832 123.9004248 -40.47485352 122.92749023 C-42.44259492 120.01593361 -44.39348245 117.09384844 -46.33984375 114.16796875 C-49.99016749 117.52254867 -52.59997663 121.26601117 -55.33984375 125.35546875 C-56.32070639 126.80009623 -57.30250852 128.24408616 -58.28515625 129.6875 C-59.0416748 130.8005249 -59.0416748 130.8005249 -59.81347656 131.93603516 C-62.24745279 135.49512196 -64.72685599 139.02150283 -67.21484375 142.54296875 C-67.71121338 143.24591064 -68.20758301 143.94885254 -68.71899414 144.6730957 C-72.36670362 149.82455719 -76.06760079 154.93609321 -79.77734375 160.04296875 C-84.23573865 166.18307393 -88.57738668 172.39036872 -92.83984375 178.66796875 C-97.62232859 185.71144778 -102.52821425 192.64981495 -107.53295898 199.53686523 C-112.71025178 206.66237495 -117.78953027 213.85449957 -122.85595703 221.05908203 C-125.34633161 224.59838042 -127.84344167 228.13292059 -130.33984375 231.66796875 C-131.3398757 233.08461287 -132.33987571 234.50127953 -133.33984375 235.91796875 C-139.33984375 244.41796875 -145.33984375 252.91796875 -151.33984375 261.41796875 C-151.83476318 262.11913818 -152.32968262 262.82030762 -152.83959961 263.54272461 C-153.84028563 264.96029529 -154.84109958 266.37777567 -155.84204102 267.79516602 C-158.33259826 271.32227447 -160.82095967 274.85089092 -163.3046875 278.3828125 C-168.96620984 286.4282807 -174.67363342 294.43784805 -180.44897461 302.40209961 C-180.94147705 303.08151611 -181.43397949 303.76093262 -181.94140625 304.4609375 C-182.72430779 305.46660263 -182.72430779 305.46660263 -183.52302551 306.49258423 C-185.4817291 309.19331859 -185.4817291 309.19331859 -186.82513428 312.64207458 C-188.88607038 317.0352376 -191.17668535 320.53775508 -195.33984375 323.16796875 C-204.08252838 325.65117953 -213.59408691 324.84405032 -222.60456514 324.58748388 C-226.22098561 324.49943889 -229.83759872 324.49170195 -233.45492554 324.47512817 C-240.29139301 324.43176206 -247.12469349 324.3170992 -253.95977151 324.17623532 C-261.74658829 324.01927145 -269.53356352 323.94265967 -277.32157063 323.87249923 C-293.32949046 323.72650211 -309.33425741 323.48056553 -325.33984375 323.16796875 C-324.40669755 321.75822402 -323.47217987 320.34938706 -322.53710938 318.94091797 C-322.01685181 318.15627167 -321.49659424 317.37162537 -320.96057129 316.5632019 C-318.36342538 312.72494418 -315.60531623 309.01085223 -312.83984375 305.29296875 C-311.60020465 303.61853087 -310.36062294 301.9440505 -309.12109375 300.26953125 C-308.49332031 299.42293945 -307.86554687 298.57634766 -307.21875 297.70410156 C-304.25089238 293.69811079 -301.29589806 289.68267199 -298.33984375 285.66796875 C-297.17058366 284.08202333 -296.00131281 282.49608584 -294.83203125 280.91015625 C-292.52005882 277.77293989 -290.21316073 274.63208599 -287.91015625 271.48828125 C-281.13653928 262.25153084 -274.26286688 253.10032591 -267.30126953 244.00439453 C-262.9193918 238.26936759 -258.6045491 232.49055734 -254.33984375 226.66796875 C-249.41419347 219.94299417 -244.40618143 213.28757882 -239.33984375 206.66796875 C-232.47340308 197.69232624 -225.73892747 188.627923 -219.06201172 179.51074219 C-217.32103626 177.14238374 -215.56853739 174.78298896 -213.8125 172.42578125 C-207.35640482 163.7458111 -201.09233115 154.97268005 -195.02539062 146.01611328 C-191.27663781 140.49482747 -187.40286035 135.08713058 -183.43066406 129.72509766 C-178.45868172 123.0051809 -173.65982486 116.16580427 -168.85595703 109.32519531 C-166.85409686 106.47681585 -164.84629533 103.63265727 -162.83764648 100.7890625 C-161.83766749 99.37295533 -160.83848327 97.95628661 -159.84008789 96.5390625 C-157.35431545 93.0116523 -154.85844053 89.49234461 -152.33984375 85.98828125 C-143.18787142 73.21691007 -134.81076499 60.00493794 -126.71484375 46.54296875 C-126.35608154 45.94685791 -125.99731934 45.35074707 -125.62768555 44.73657227 C-123.68116638 41.4801066 -121.7917822 38.19927835 -119.94921875 34.8828125 C-114.67282991 25.47566958 -108.97234494 17.77672965 -101.33984375 10.16796875 C-100.74816406 9.51699219 -100.15648437 8.86601562 -99.546875 8.1953125 C-74.80795255 -18.62045776 -28.75848117 -22.05506541 0 0 Z " fill="#FDFDFD" transform="translate(1270.33984375,13.83203125)"/>
<path d="M0 0 C66.33 0 132.66 0 201 0 C201 127.05 201 254.1 201 385 C134.67 385 68.34 385 0 385 C0 257.95 0 130.9 0 0 Z M28 23 C27.49945249 25.11615844 27.49945249 25.11615844 27.48828125 27.44921875 C27.45283203 28.29677734 27.41738281 29.14433594 27.38085938 30.01757812 C27.34702148 31.33918945 27.34702148 31.33918945 27.3125 32.6875 C27.27833984 33.58017578 27.24417969 34.47285156 27.20898438 35.39257812 C27.12654352 37.59492671 27.05738449 39.79687938 27 42 C26.01 42.33 25.02 42.66 24 43 C24.05800781 41.73542969 24.11601562 40.47085938 24.17578125 39.16796875 C24.22267728 37.50784935 24.26817761 35.84769011 24.3125 34.1875 C24.35439453 33.35412109 24.39628906 32.52074219 24.43945312 31.66210938 C24.48611106 29.33854401 24.48493084 27.27429694 24 25 C21.64937666 22.83551023 21.64937666 22.83551023 19 22 C18.91279081 25.58317958 18.85953888 29.16608567 18.8125 32.75 C18.78736328 33.76578125 18.76222656 34.7815625 18.73632812 35.828125 C18.72666016 36.8078125 18.71699219 37.7875 18.70703125 38.796875 C18.6913208 39.69760742 18.67561035 40.59833984 18.65942383 41.52636719 C19.06744434 44.48985383 19.99507456 45.81659364 22 48 C23.82423512 49.24774386 23.82423512 49.24774386 26 49 C28.75799015 46.97170231 30.73531902 45.37471082 31.40429688 41.90014648 C31.49174641 39.47825187 31.43665884 37.10764235 31.3125 34.6875 C31.28994141 33.85154297 31.26738281 33.01558594 31.24414062 32.15429688 C31.1855061 30.10208851 31.09583215 28.05080798 31 26 C32.32 26 33.64 26 35 26 C34.97381592 26.55985596 34.94763184 27.11971191 34.9206543 27.6965332 C34.81667669 30.23490294 34.7516795 32.77282553 34.6875 35.3125 C34.64560547 36.19357422 34.60371094 37.07464844 34.56054688 37.98242188 C34.51420618 40.41994228 34.51388656 42.60970257 35 45 C37.34196848 47.20162663 37.34196848 47.20162663 40 48 C40.1164862 44.27109745 40.18734576 40.54266486 40.25 36.8125 C40.28351563 35.75740234 40.31703125 34.70230469 40.3515625 33.61523438 C40.46834821 27.42015482 40.46834821 27.42015482 38.14453125 21.79296875 C36.12342869 19.81011561 36.12342869 19.81011561 33.4375 19.5 C30.55982068 20.09029319 29.79872712 20.722546 28 23 Z M33 60 C32.649375 59.34 32.29875 58.68 31.9375 58 C30.05407132 55.65798178 30.05407132 55.65798178 26.5625 55.4375 C22.97632992 55.68090247 22.97632992 55.68090247 20.8125 57.90234375 C18.2314736 62.31345137 18.37625789 66.10314737 18.4375 71.125 C18.41365234 72.03121094 18.38980469 72.93742187 18.36523438 73.87109375 C18.36716797 74.74121094 18.36910156 75.61132812 18.37109375 76.5078125 C18.37036865 77.29816895 18.36964355 78.08852539 18.36889648 78.90283203 C18.9670521 81.74280403 18.9670521 81.74280403 24 84 C24 76.74 24 69.48 24 62 C25.65 62 27.3 62 29 62 C29.33 69.59 29.66 77.18 30 85 C33.3 85 36.6 85 40 85 C40 83.02 40 81.04 40 79 C38.02 79 36.04 79 34 79 C34.07014679 74.94424029 34.2384956 70.98985402 35 67 C37.5625 64.75 37.5625 64.75 40 63 C40.45819613 60.20718547 40.23758842 57.85106098 40 55 C37.59244254 55 34.75431241 58.50696816 33 60 Z M32.875 95.625 C31.40546875 96.71748047 31.40546875 96.71748047 29.90625 97.83203125 C28.9471875 98.54746094 27.988125 99.26289063 27 100 C26.1853125 100.58136719 25.370625 101.16273438 24.53125 101.76171875 C23.8196875 102.27347656 23.108125 102.78523438 22.375 103.3125 C21.74335938 103.76238281 21.11171875 104.21226562 20.4609375 104.67578125 C18.71341969 106.04219276 18.71341969 106.04219276 18 109 C21.07509919 114.05625553 25.9036092 117.02881182 30.6875 120.3125 C31.8640918 121.13717773 31.8640918 121.13717773 33.06445312 121.97851562 C36.27778946 124.65337476 36.27778946 124.65337476 40 126 C40.58602303 122.73011266 40.58602303 122.73011266 40 119 C37.99607162 116.68668535 35.58011682 115.1788087 33 113.5625 C32.33226562 113.11712891 31.66453125 112.67175781 30.9765625 112.21289062 C29.33185092 111.12033222 27.6676699 110.0571836 26 109 C28.61514317 106.87961365 31.19637616 104.86908256 34 103 C34.01417969 103.61488281 34.02835938 104.22976563 34.04296875 104.86328125 C34.09066406 105.67152344 34.13835937 106.47976563 34.1875 107.3125 C34.23970703 108.51326172 34.23970703 108.51326172 34.29296875 109.73828125 C34.951302 112.72436306 34.951302 112.72436306 40 115 C40 107.41 40 99.82 40 92 C36.90804811 92 35.32511074 93.80277279 32.875 95.625 Z M19 125 C18.85507281 128.93711437 18.76605463 132.87354625 18.6875 136.8125 C18.64560547 137.93205078 18.60371094 139.05160156 18.56054688 140.20507812 C18.54443359 141.27822266 18.52832031 142.35136719 18.51171875 143.45703125 C18.48553467 144.44678955 18.45935059 145.43654785 18.43237305 146.45629883 C18.76281127 149.25352039 18.76281127 149.25352039 21.53051758 150.84643555 C22.34544678 151.22711182 23.16037598 151.60778809 24 152 C24 148.7 24 145.4 24 142 C29.28 142 34.56 142 40 142 C40 140.02 40 138.04 40 136 C34.72 136 29.44 136 24 136 C24 133.36 24 130.72 24 128 C21.6450037 125.91783124 21.6450037 125.91783124 19 125 Z " fill="#FDFDFD" transform="translate(134,203)"/>
<path d="M0 0 C1.14789456 0.00037972 2.29578912 0.00075944 3.47846836 0.00115067 C4.79718293 -0.00084038 6.11589751 -0.00283143 7.47457314 -0.00488281 C8.95726585 -0.00202921 10.43995839 0.0009164 11.92265075 0.00394398 C13.48268853 0.00350841 15.04272623 0.00263378 16.60276353 0.00135481 C20.91030834 -0.00089304 25.21782852 0.00313508 29.52537018 0.00813287 C34.16275108 0.01243305 38.80013048 0.01099126 43.43751281 0.0102306 C51.47895969 0.00970509 59.52039849 0.01285472 67.56184334 0.01846844 C79.18856377 0.02657978 90.81528028 0.02919828 102.44200324 0.03045643 C121.30351016 0.03264753 140.16501276 0.03930918 159.02651733 0.04875904 C177.35366555 0.05793167 195.6808126 0.06501323 214.00796264 0.06926686 C215.13678425 0.06952958 216.26560585 0.0697923 217.42863417 0.07006299 C223.09134247 0.07136798 228.75405077 0.0726317 234.41675907 0.07387489 C281.42852718 0.0842493 328.44029059 0.10186918 375.45205444 0.1241985 C374.17359805 2.7305277 372.87247774 5.06249388 371.12392944 7.382011 C370.66099487 7.99842457 370.1980603 8.61483814 369.72109741 9.24993092 C368.96917114 10.23956837 368.96917114 10.23956837 368.20205444 11.2491985 C367.67627807 11.94569508 367.15050171 12.64219166 366.60879272 13.3597942 C361.38938162 20.25189719 356.07712041 27.07166111 350.75674194 33.88591725 C347.97204821 37.45296218 345.20680944 41.03398501 342.45205444 44.6241985 C338.53674032 49.72500053 334.5919512 54.8020907 330.63955444 59.8741985 C325.86721099 66.00298151 321.11353548 72.14554546 316.38955444 78.3116985 C315.86579223 78.99393482 315.34203003 79.67617115 314.80239624 80.37908131 C314.30393188 81.03102467 313.80546753 81.68296803 313.29189819 82.35466725 C312.86255981 82.91565113 312.43322143 83.47663502 311.9908728 84.05461842 C309.76706665 87.04544893 307.61831764 90.09143001 305.45205444 93.1241985 C267.83205444 93.1241985 230.21205444 93.1241985 191.45205444 93.1241985 C191.45205444 171.9941985 191.45205444 250.8641985 191.45205444 332.1241985 C155.48205444 332.1241985 119.51205444 332.1241985 82.45205444 332.1241985 C82.45205444 253.2541985 82.45205444 174.3841985 82.45205444 93.1241985 C30.97205444 93.1241985 -20.50794556 93.1241985 -73.54794556 93.1241985 C-70.89324599 88.47847424 -68.93886717 85.14619885 -65.61044556 81.2491985 C-61.64975777 76.50679601 -57.85204632 71.66619984 -54.11044556 66.7491985 C-53.55389282 66.01813893 -52.99734009 65.28707936 -52.42392212 64.53386647 C-51.31842667 63.08084662 -50.21327712 61.62756353 -49.10849243 60.17400318 C-46.86935241 57.23285493 -44.61634165 54.30250355 -42.36044556 51.3741985 C-39.97198982 48.27265646 -37.5838186 45.17093492 -35.20028931 42.06560475 C-29.74473851 34.96008249 -24.25425419 27.88248098 -18.74936157 20.81511647 C-14.25387076 15.04076267 -9.78835636 9.24421326 -5.34091431 3.43279225 C-2.78008398 0.13551398 -2.78008398 0.13551398 0 0 Z " fill="#FDFDFD" transform="translate(646.5479455590248,4.875801503658295)"/>
<path d="M0 0 C34.32 0 68.64 0 104 0 C104 194.04 104 388.08 104 588 C69.68 588 35.36 588 0 588 C0 393.96 0 199.92 0 0 Z " fill="#FDFDFD" transform="translate(365,0)"/>
<path d="M0 0 C34.32 0 68.64 0 104 0 C104 194.04 104 388.08 104 588 C69.68 588 35.36 588 0 588 C0 393.96 0 199.92 0 0 Z " fill="#FDFDFD" transform="translate(0,0)"/>
<path d="M0 0 C66.33 0 132.66 0 201 0 C201 34.98 201 69.96 201 106 C134.67 106 68.34 106 0 106 C0 71.02 0 36.04 0 0 Z " fill="#FDFDFD" transform="translate(134,0)"/>
<path d="M0 0 C638.55 0 1277.1 0 1935 0 C1935 3.63 1935 7.26 1935 11 C1296.45 11 657.9 11 0 11 C0 7.37 0 3.74 0 0 Z " fill="#FDFDFD" transform="translate(581,577)"/>
<path d="M0 0 C638.55 0 1277.1 0 1935 0 C1935 3.63 1935 7.26 1935 11 C1296.45 11 657.9 11 0 11 C0 7.37 0 3.74 0 0 Z " fill="#FDFDFD" transform="translate(581,388)"/>
<path d="M0 0 C66.66 0 133.32 0 202 0 C202 31.02 202 62.04 202 94 C135.34 94 68.68 94 0 94 C0 62.98 0 31.96 0 0 Z M20 10 C18.515 11.98 18.515 11.98 17 14 C18.32 15.32 19.64 16.64 21 18 C22.65 17.34 24.3 16.68 26 16 C25.67 14.35 25.34 12.7 25 11 C23.35 10.67 21.7 10.34 20 10 Z M36.125 11.1875 C34.75549896 12.96094026 34.75549896 12.96094026 35.3125 15.1875 C35.539375 15.785625 35.76625 16.38375 36 17 C38.34533951 17.76956136 38.34533951 17.76956136 41 18 C42.98029682 16.93654948 42.98029682 16.93654948 44 15 C43.77242269 12.83700789 43.77242269 12.83700789 43 11 C39.43173975 9.84871656 39.43173975 9.84871656 36.125 11.1875 Z M55 10 C53.515 11.98 53.515 11.98 52 14 C53.32 15.32 54.64 16.64 56 18 C57.65 17.34 59.3 16.68 61 16 C60.67 14.35 60.34 12.7 60 11 C58.35 10.67 56.7 10.34 55 10 Z M20 25 C18.1645201 26.33378575 18.1645201 26.33378575 17 28 C17.79117904 29.99983534 17.79117904 29.99983534 19 32 C21.89186786 33.33304698 21.89186786 33.33304698 24.1875 32.0625 C24.785625 31.711875 25.38375 31.36125 26 31 C25.67 29.35 25.34 27.7 25 26 C22.65466049 25.23043864 22.65466049 25.23043864 20 25 Z M35 27 C35.01382865 29.05714832 35.01382865 29.05714832 36 31 C37.9837767 32.28436734 37.9837767 32.28436734 40 33 C41.32 32.01 42.64 31.02 44 30 C43.50243908 27.24358584 43.50243908 27.24358584 42 25 C38.038832 24.60909667 38.038832 24.60909667 35 27 Z " fill="#FDFDFD" transform="translate(133,108)"/>
<path d="M0 0 C4.62 0 9.24 0 14 0 C17.33857778 3.45347476 18.94376226 5.63296163 21.0625 9.75 C22.23130452 11.79137811 23.40191491 13.83172319 24.57421875 15.87109375 C25.14575684 16.90476074 25.71729492 17.93842773 26.30615234 19.00341797 C28.79629041 23.40871555 31.57379656 27.60098193 34.375 31.8125 C35.44737205 33.4530827 36.51763941 35.0950428 37.5859375 36.73828125 C38.13475586 37.58213379 38.68357422 38.42598633 39.24902344 39.29541016 C42.52116558 44.34961967 45.75890046 49.42585119 49 54.5 C54.01580215 62.35027164 59.04816788 70.18903283 64.125 78 C64.63289063 78.78181641 65.14078125 79.56363281 65.6640625 80.36914062 C69.07300404 85.60494844 72.53392023 90.80088035 76 96 C76.33 64.32 76.66 32.64 77 0 C81.29 0 85.58 0 90 0 C90 39.6 90 79.2 90 120 C76 120 76 120 72.796875 117.02734375 C71.72338867 115.07519531 71.72338867 115.07519531 70.75 112.9375 C69.9521691 111.45023645 69.15131477 109.96459138 68.34765625 108.48046875 C67.95980957 107.72556152 67.57196289 106.9706543 67.17236328 106.19287109 C65.4041839 102.88554348 63.3131517 99.8348854 61.1875 96.75 C60.3496382 95.50650276 59.51375392 94.26167115 58.6796875 93.015625 C58.0314502 92.04786133 58.0314502 92.04786133 57.37011719 91.06054688 C54.82084734 87.22664854 52.3180161 83.36257617 49.8125 79.5 C49.26932129 78.66299561 48.72614258 77.82599121 48.16650391 76.96362305 C47.03209697 75.21525335 45.89782256 73.46679766 44.76367188 71.71826172 C41.70049875 66.99714191 38.63291406 62.27891337 35.5625 57.5625 C35.01505127 56.71945312 34.46760254 55.87640625 33.90356445 55.0078125 C27.35206562 44.94841717 20.66036725 34.99055088 14 25 C13.67 56.35 13.34 87.7 13 120 C8.71 120 4.42 120 0 120 C0 80.4 0 40.8 0 0 Z " fill="#FDFDFD" transform="translate(1276,428)"/>
<path d="M0 0 C7.79907166 7.60162681 10.95376486 15.21429046 13.625 25.75 C13.625 26.41 13.625 27.07 13.625 27.75 C9.005 27.75 4.385 27.75 -0.375 27.75 C-1.07625 25.914375 -1.7775 24.07875 -2.5 22.1875 C-5.86376918 14.18794809 -9.45433285 9.01662474 -17.5078125 5.4609375 C-26.19781399 2.15219216 -35.90223007 3.25092097 -44.375 6.75 C-51.15596786 10.83218801 -54.31678836 16.22648061 -56.375 23.75 C-57.5606053 29.31301502 -57.55368611 34.78805319 -57.578125 40.44921875 C-57.58382507 41.48005081 -57.58952515 42.51088287 -57.59539795 43.57295227 C-57.60482223 45.75069155 -57.61137168 47.92844493 -57.61523438 50.10620117 C-57.62491631 53.40894988 -57.65595511 56.71106959 -57.6875 60.01367188 C-57.69403346 62.13801717 -57.69928258 64.26236688 -57.703125 66.38671875 C-57.7154718 67.36106369 -57.7278186 68.33540863 -57.74053955 69.33927917 C-57.71312342 77.93382332 -56.53427865 87.30300025 -51.0234375 94.25 C-46.2620198 98.58266445 -39.77664805 101.35806236 -33.375 101.75 C-32.56417969 101.80027344 -31.75335937 101.85054687 -30.91796875 101.90234375 C-22.37112186 102.20118455 -14.90807533 101.07470871 -8 95.75 C1.04545341 86.92383031 0.27121673 74.51329382 0.625 62.75 C-8.945 62.75 -18.515 62.75 -28.375 62.75 C-28.375 58.79 -28.375 54.83 -28.375 50.75 C-14.185 50.75 0.005 50.75 14.625 50.75 C14.66625 54.6275 14.7075 58.505 14.75 62.5 C14.76820801 63.69592773 14.78641602 64.89185547 14.80517578 66.12402344 C14.88101074 81.08063343 12.83232118 94.45485933 2.171875 105.55078125 C-6.55168426 113.08354791 -18.68130316 115.29668149 -29.9765625 114.9296875 C-42.29164641 114.00705906 -54.33988573 111.40243946 -62.9140625 101.76171875 C-67.57340808 95.34577497 -69.63325802 88.84877587 -70.5 81.0078125 C-70.58345169 80.27113342 -70.66690338 79.53445435 -70.75288391 78.77545166 C-71.54911321 71.11835547 -71.64387227 63.49267328 -71.58081055 55.80078125 C-71.56239549 53.48686757 -71.5603032 51.17335499 -71.56054688 48.859375 C-71.48028098 14.04271208 -71.48028098 14.04271208 -59.74609375 0.9296875 C-44.57479165 -13.08000678 -15.48457776 -13.20743397 0 0 Z " fill="#FDFDFD" transform="translate(2040.375,435.25)"/>
<path d="M0 0 C8.14042301 8.18887791 12.04435645 18.86915123 12.12988281 30.33056641 C12.13949036 31.37580475 12.1490979 32.42104309 12.15899658 33.49795532 C12.16324646 34.61882538 12.16749634 35.73969543 12.171875 36.89453125 C12.17757507 38.05995453 12.18327515 39.22537781 12.18914795 40.42611694 C12.1985866 42.89230444 12.20512742 45.35850449 12.20898438 47.82470703 C12.21866062 51.57086636 12.24968372 55.31647002 12.28125 59.0625 C12.2877836 61.46484051 12.29303267 63.86718493 12.296875 66.26953125 C12.3092218 67.37825592 12.3215686 68.48698059 12.33428955 69.62930298 C12.30095972 81.44763683 9.58638478 93.49118685 1.5 102.5390625 C-7.78000473 111.27457716 -19.83434779 114.38830571 -32.37890625 114.1953125 C-46.08250367 113.08530093 -56.03195503 109.10465041 -65 98.6953125 C-67.10282215 95.88480982 -68.39545211 93.28650963 -69.71875 90.04296875 C-70.13511719 89.04394531 -70.55148437 88.04492188 -70.98046875 87.015625 C-73.32386537 80.24678049 -73.20620921 73.52496958 -73.234375 66.44140625 C-73.24007507 65.32416168 -73.24577515 64.20691711 -73.25164795 63.05581665 C-73.26107685 60.69395895 -73.26762353 58.33208821 -73.27148438 55.97021484 C-73.28116006 52.38875848 -73.31219217 48.80788364 -73.34375 45.2265625 C-73.35028396 42.92318046 -73.35553289 40.61979435 -73.359375 38.31640625 C-73.3717218 37.25972748 -73.3840686 36.20304871 -73.39678955 35.11434937 C-73.3584964 22.08915115 -70.29725532 10.47602877 -61.40625 0.73046875 C-45.58001829 -14.14737454 -16.31256243 -13.85976772 0 0 Z M-53.65625 11.60546875 C-59.68678494 19.39221814 -60.63298344 27.85816962 -60.5625 37.41796875 C-60.5663269 38.57868896 -60.57015381 39.73940918 -60.57409668 40.93530273 C-60.57680418 43.37582269 -60.56952508 45.81637224 -60.55273438 48.25683594 C-60.53131002 51.97006576 -60.55257792 55.68136086 -60.578125 59.39453125 C-60.57548152 61.77734798 -60.57035613 64.16016351 -60.5625 66.54296875 C-60.57059692 67.64116943 -60.57869385 68.73937012 -60.58703613 69.87084961 C-60.46737949 79.81725991 -57.90683005 87.96573837 -51.02734375 95.2890625 C-43.97807699 101.26231594 -34.9909646 102.70168417 -26.03125 101.98046875 C-17.47875578 100.74812088 -11.6713487 97.5586296 -6.03125 90.98046875 C-2.43546764 85.47224813 -0.91863132 80.27219213 -0.87011719 73.7121582 C-0.86050964 72.66038895 -0.8509021 71.60861969 -0.84100342 70.52497864 C-0.83675354 69.39267319 -0.83250366 68.26036774 -0.828125 67.09375 C-0.81957489 65.33637764 -0.81957489 65.33637764 -0.81085205 63.54350281 C-0.80140612 61.06294659 -0.79486969 58.58237785 -0.79101562 56.10180664 C-0.78133163 52.32480676 -0.75031229 48.54835608 -0.71875 44.77148438 C-0.71221745 42.35807614 -0.70696797 39.94466402 -0.703125 37.53125 C-0.6907782 36.4090657 -0.6784314 35.28688141 -0.66571045 34.13069153 C-0.69477048 23.79365926 -2.5868721 16.51742277 -9.77734375 8.9296875 C-16.26246681 3.32123619 -24.18154811 1.64997272 -32.5625 1.76171875 C-40.94589058 2.50455083 -47.71348157 5.66270032 -53.65625 11.60546875 Z " fill="#FDFDFD" transform="translate(1533.03125,436.01953125)"/>
<path d="M0 0 C9.57794572 9.35567272 12.85104502 21.17547822 13.00498962 34.26339722 C13.00205399 35.39077301 12.99911835 36.5181488 12.99609375 37.6796875 C13.0013356 38.87626984 13.00657745 40.07285217 13.01197815 41.30569458 C13.0183648 43.82178984 13.01710524 46.3379151 13.00854492 48.85400391 C13.00003868 52.67014584 13.02884114 56.48478677 13.06054688 60.30078125 C13.06215945 62.76041622 13.06158027 65.22005381 13.05859375 67.6796875 C13.06982773 68.80301483 13.08106171 69.92634216 13.09263611 71.08370972 C12.99303735 82.59984953 10.30583023 93.98026396 2.5625 102.8125 C-7.61661466 112.81268491 -19.66637327 114.9084183 -33.4375 114.8125 C-44.4735755 114.19279206 -55.46753444 110.15988855 -62.98046875 101.76953125 C-73.02223227 88.28180062 -72.92923868 71.94633201 -72.82861328 55.87207031 C-72.81252847 52.81790508 -72.82853733 49.76506277 -72.84765625 46.7109375 C-72.86490026 30.99134647 -72.45410955 14.43552015 -61.375 2.0625 C-45.42754175 -12.53874424 -16.94492867 -13.54953654 0 0 Z M-53.97265625 13.69921875 C-59.32807531 21.64647328 -59.7465989 29.86162488 -59.73828125 39.1796875 C-59.74256638 40.25445343 -59.7468515 41.32921936 -59.75126648 42.43655396 C-59.75698645 44.7006968 -59.75752733 46.96485802 -59.75317383 49.22900391 C-59.75001613 52.66991928 -59.77349551 56.10997206 -59.79882812 59.55078125 C-59.80110176 61.76041559 -59.80180432 63.97005222 -59.80078125 66.1796875 C-59.809991 67.19666718 -59.81920074 68.21364685 -59.82868958 69.26144409 C-59.76370197 79.42840543 -57.75749158 88.39336632 -50.4375 95.8125 C-42.78161422 102.04182321 -34.13570964 103.75150971 -24.4375 102.8125 C-16.85917498 101.36253647 -10.53006504 98.82640658 -5.74609375 92.6171875 C-0.06729804 83.88689434 0.87396742 74.87087161 0.86328125 64.6328125 C0.86970894 63.23178787 0.86970894 63.23178787 0.87626648 61.80245972 C0.88196831 59.84113367 0.88254096 57.8797865 0.87817383 55.91845703 C0.8750152 52.95177395 0.89852121 49.98609149 0.92382812 47.01953125 C1.01127125 26.9794678 1.01127125 26.9794678 -8.4375 9.8125 C-15.14317594 4.04052578 -23.42730197 2.3090403 -32.1171875 2.56640625 C-40.86647294 3.49436077 -48.35663094 6.79708078 -53.97265625 13.69921875 Z " fill="#FDFDFD" transform="translate(1868.4375,435.1875)"/>
<path d="M0 0 C4.29 0 8.58 0 13 0 C13 18.15 13 36.3 13 55 C32.8 55 52.6 55 73 55 C73 36.85 73 18.7 73 0 C77.29 0 81.58 0 86 0 C86 39.6 86 79.2 86 120 C81.71 120 77.42 120 73 120 C73 102.51 73 85.02 73 67 C53.2 67 33.4 67 13 67 C13 84.49 13 101.98 13 120 C8.71 120 4.42 120 0 120 C0 80.4 0 40.8 0 0 Z " fill="#FDFDFD" transform="translate(1094,428)"/>
<path d="M0 0 C25.74 0 51.48 0 78 0 C78 3.63 78 7.26 78 11 C56.55 11 35.1 11 13 11 C13 25.52 13 40.04 13 55 C31.48 55 49.96 55 69 55 C69 58.63 69 62.26 69 66 C50.52 66 32.04 66 13 66 C13 80.19 13 94.38 13 109 C34.45 109 55.9 109 78 109 C78 112.63 78 116.26 78 120 C52.26 120 26.52 120 0 120 C0 80.4 0 40.8 0 0 Z " fill="#FDFDFD" transform="translate(2261,428)"/>
<path d="M0 0 C25.74 0 51.48 0 78 0 C78 3.63 78 7.26 78 11 C56.55 11 35.1 11 13 11 C13 25.52 13 40.04 13 55 C31.48 55 49.96 55 69 55 C69 58.63 69 62.26 69 66 C50.52 66 32.04 66 13 66 C13 80.19 13 94.38 13 109 C34.45 109 55.9 109 78 109 C78 112.63 78 116.26 78 120 C52.26 120 26.52 120 0 120 C0 80.4 0 40.8 0 0 Z " fill="#FDFDFD" transform="translate(755,428)"/>
<path d="M0 0 C0 3.60573896 -0.81707462 4.41336566 -3 7.1875 C-3.556875 7.90292969 -4.11375 8.61835938 -4.6875 9.35546875 C-5.120625 9.89816406 -5.55375 10.44085938 -6 11 C-9.74157939 9.57983848 -13.21450894 7.87063019 -16.75 6 C-28.29449103 0.21364141 -38.85748869 -0.32691977 -51.296875 3.0859375 C-57.88389263 5.31333941 -61.85185576 9.24074758 -65.25 15.1875 C-66.76219255 20.85822206 -66.94209101 26.04334945 -64.375 31.375 C-59.46389442 36.80306406 -54.27125008 38.79182831 -47.375 40.4375 C-46.55394775 40.64503906 -45.73289551 40.85257812 -44.88696289 41.06640625 C-40.48818728 42.1726602 -36.07615174 43.21889466 -31.66015625 44.25390625 C-18.03146366 47.47806119 -6.70794779 50.17145571 1.09375 62.765625 C4.89422028 70.85921911 4.11889537 81.63904364 1.4375 89.9375 C-2.33948093 98.74609912 -7.88832358 103.75723307 -16.55078125 107.74609375 C-35.30769814 114.56485969 -55.88876779 113.2167348 -74 105 C-77.59526812 102.98049171 -81.11485836 100.97156294 -84 98 C-84 93.86356447 -83.84767359 93.30197567 -81.5 90.25 C-81.0359375 89.63640625 -80.571875 89.0228125 -80.09375 88.390625 C-79.7328125 87.93171875 -79.371875 87.4728125 -79 87 C-75.62168942 87.63872387 -73.30631005 88.94564667 -70.4375 90.8125 C-57.69663866 98.62990165 -43.4589522 101.05088887 -28.8125 97.875 C-21.96289953 95.9603479 -16.18094869 93.0669591 -12 87.1875 C-9.92440016 80.57152551 -9.05752048 74.49797561 -12 68 C-19.21693392 58.79066102 -32.22984098 57.70222405 -42.9375 55.5625 C-68.72614766 50.35538585 -68.72614766 50.35538585 -76 40 C-78.94831598 34.44540006 -79.51617122 29.86728246 -79.4375 23.625 C-79.42920166 22.78155029 -79.42090332 21.93810059 -79.41235352 21.0690918 C-79.15571205 11.64824951 -76.35005067 5.66258066 -69.91015625 -1.21484375 C-52.46140555 -17.52175391 -17.64678166 -15.19699315 0 0 Z " fill="#FDFDFD" transform="translate(2508,438)"/>
<path d="M0 0 C5.86574931 5.79578013 9.55895088 13.10102595 11.96484375 20.94140625 C11.96484375 21.93140625 11.96484375 22.92140625 11.96484375 23.94140625 C7.67484375 23.94140625 3.38484375 23.94140625 -1.03515625 23.94140625 C-1.71578125 22.43578125 -2.39640625 20.93015625 -3.09765625 19.37890625 C-7.44030765 10.77875347 -12.93683985 6.06947806 -22.03515625 2.94140625 C-30.38631655 0.56674426 -37.34683025 2.24641973 -45.03515625 5.94140625 C-52.20910615 10.41519788 -55.35847018 16.83406521 -57.59666443 24.79679871 C-58.46750235 29.05595585 -58.36121674 33.37107142 -58.37109375 37.703125 C-58.37775055 38.73017044 -58.38440735 39.75721588 -58.39126587 40.81538391 C-58.40135935 42.9829429 -58.40608392 45.15053276 -58.40576172 47.31811523 C-58.41011958 50.60128236 -58.44643346 53.88308723 -58.484375 57.16601562 C-58.71411958 76.81542794 -58.71411958 76.81542794 -48.96484375 93.3203125 C-42.88541913 98.42752144 -36.15509546 100.31148488 -28.26953125 100.1484375 C-19.91299107 99.37414269 -12.7220266 96.18071544 -7.03515625 89.94140625 C-4.66136416 86.0258729 -2.88079371 82.15324559 -1.03515625 77.94140625 C3.25484375 77.94140625 7.54484375 77.94140625 11.96484375 77.94140625 C10.12617709 88.47195165 5.54914956 98.23833067 -3.359375 104.6015625 C-5.87049159 106.16668417 -8.40572081 107.58547481 -11.03515625 108.94140625 C-11.67195312 109.27269531 -12.30875 109.60398437 -12.96484375 109.9453125 C-22.35272109 114.11546402 -34.35128865 113.96588066 -44.03515625 110.94140625 C-56.6437322 105.95514322 -62.58213014 99.61115382 -68.5546875 87.734375 C-71.84547206 80.04701316 -72.34440685 71.8724427 -72.3359375 63.61328125 C-72.34022263 62.66181213 -72.34450775 61.71034302 -72.34892273 60.7300415 C-72.35462681 58.73002919 -72.35519551 56.72999615 -72.35083008 54.72998047 C-72.34767864 51.71284545 -72.37114992 48.69670121 -72.39648438 45.6796875 C-72.45213847 29.06557025 -71.5744189 13.15874112 -59.91015625 0.12890625 C-43.04023249 -15.32899746 -17.09282718 -14.31099273 0 0 Z " fill="#FDFDFD" transform="translate(993.03515625,437.05859375)"/>
<path d="M0 0 C4.29 0 8.58 0 13 0 C13 35.97 13 71.94 13 109 C34.45 109 55.9 109 78 109 C78 112.63 78 116.26 78 120 C52.26 120 26.52 120 0 120 C0 80.4 0 40.8 0 0 Z " fill="#FDFDFD" transform="translate(1637,428)"/>
<path d="M0 0 C28.38 0 56.76 0 86 0 C86 3.63 86 7.26 86 11 C73.79 11 61.58 11 49 11 C49 46.97 49 82.94 49 120 C45.04 120 41.08 120 37 120 C37 84.03 37 48.06 37 11 C24.79 11 12.58 11 0 11 C0 7.37 0 3.74 0 0 Z " fill="#FDFDFD" transform="translate(586,428)"/>
<path d="M0 0 C3.96 0 7.92 0 12 0 C12 39.6 12 79.2 12 120 C8.04 120 4.08 120 0 120 C0 80.4 0 40.8 0 0 Z " fill="#FEFEFE" transform="translate(2150,428)"/>
</svg>
